<?xml version="1.0" encoding="UTF-8" standalone="no"?>
<!DOCTYPE svg PUBLIC "-//W3C//DTD SVG 1.1//EN" "http://www.w3.org/Graphics/SVG/1.1/DTD/svg11.dtd">
<svg version="1.1" xmlns="http://www.w3.org/2000/svg" xmlns:xlink="http://www.w3.org/1999/xlink" preserveAspectRatio="xMidYMid meet" viewBox="0 0 24 24" width="24" height="24"><defs><path d="" id="cjM79RWJu"></path><path d="M7.23 13.71C3.65 13.71 0.75 10.81 0.75 7.23C0.75 3.65 3.65 0.75 7.23 0.75C10.8 0.75 13.71 3.65 13.71 7.23C13.71 10.81 10.8 13.71 7.23 13.71Z" id="a73EwXGvk"></path><path d="M8.13 8.14C14.95 14.95 19.22 19.22 20.92 20.93C20.94 20.94 20.93 20.97 20.9 20.97C20.29 20.98 17.03 20.98 14.57 21C16.98 20.98 20.21 20.98 20.81 20.97C20.89 20.97 20.97 20.9 20.97 20.81C20.97 20.21 20.93 16.98 20.95 14.58" id="c29Oqo1LgJ"></path><path d="M8.15 8.15C14.97 14.97 19.24 19.23 20.94 20.94C20.96 20.96 20.95 20.99 20.92 20.99C20.31 20.99 17.76 20.95 15.31 20.97C17.71 20.95 20.23 20.99 20.83 20.99C20.92 20.99 20.99 20.92 20.99 20.83C20.99 20.23 21 17.71 21.01 15.31" id="aypQ6lrSF"></path><path d="M7.24 13.15C3.98 13.15 1.34 10.51 1.34 7.25C1.34 4 3.98 1.35 7.24 1.35C10.49 1.35 13.13 4 13.13 7.25C13.13 10.51 10.49 13.15 7.24 13.15Z" id="c74UDEqU1"></path></defs><g><g><g><g><use xlink:href="#cjM79RWJu" opacity="1" fill-opacity="0" stroke="#333333" stroke-width="3" stroke-opacity="1"></use></g></g><g><use xlink:href="#a73EwXGvk" opacity="1" fill="#aaaaaa" fill-opacity="1"></use><g><use xlink:href="#a73EwXGvk" opacity="1" fill-opacity="0" stroke="#000000" stroke-width="1" stroke-opacity="0"></use></g></g><g><g><use xlink:href="#c29Oqo1LgJ" opacity="1" fill-opacity="0" stroke="#aaaaaa" stroke-width="4.5" stroke-opacity="1"></use></g></g><g><use xlink:href="#aypQ6lrSF" opacity="1" fill="#000000" fill-opacity="0"></use><g><use xlink:href="#aypQ6lrSF" opacity="1" fill-opacity="0" stroke="#333333" stroke-width="3" stroke-opacity="1"></use></g></g><g><use xlink:href="#c74UDEqU1" opacity="1" fill="#333333" fill-opacity="1"></use><g><use xlink:href="#c74UDEqU1" opacity="1" fill-opacity="0" stroke="#000000" stroke-width="1" stroke-opacity="0"></use></g></g></g></g></svg>