<?xml version="1.0" encoding="UTF-8" standalone="no"?>
<!DOCTYPE svg PUBLIC "-//W3C//DTD SVG 1.1//EN" "http://www.w3.org/Graphics/SVG/1.1/DTD/svg11.dtd">
<svg version="1.1" xmlns="http://www.w3.org/2000/svg" xmlns:xlink="http://www.w3.org/1999/xlink" preserveAspectRatio="xMidYMid meet" viewBox="0 0 32 32" width="32" height="32"><defs><path d="" id="cjM79RWJu"></path><path d="M16.98 15.96C13 15.96 9.75 12.72 9.75 8.73C9.75 4.74 13 1.49 16.98 1.49C20.97 1.49 24.22 4.74 24.22 8.73C24.22 12.72 20.97 15.96 16.98 15.96Z" id="a12Z6HZVQa"></path><path d="M16.98 13.31C16.98 14.75 16.98 15.55 16.98 15.71C16.98 16.26 16.98 16.61 16.98 16.75C16.98 17.26 16.57 17.68 16.06 17.68C16.06 17.68 16.06 17.68 16.06 17.68C14.58 17.68 13.66 17.68 13.29 17.68C12.61 17.68 12.06 18.22 12.06 18.9C12.06 19.25 12.06 18.88 12.06 19.18C12.06 19.98 12.71 20.63 13.51 20.63C15 20.63 17.63 20.63 19.03 20.63C20.08 20.63 20.92 21.48 20.92 22.53C20.92 22.93 20.92 22.26 20.92 22.67C20.92 23.72 20.08 24.57 19.03 24.57C16.65 24.57 11.41 24.57 9.04 24.57C7.99 24.57 7.14 25.41 7.14 26.46C7.14 26.87 7.14 26.11 7.14 26.5C7.14 27.61 8.04 28.51 9.15 28.51C11.25 28.51 16.48 28.51 24.86 28.51" id="b3lAMWYCZF"></path><path d="M16.98 13.3C16.98 14.74 16.98 15.54 16.98 15.7C16.98 16.25 16.98 16.6 16.98 16.74C16.98 17.25 16.57 17.67 16.06 17.67C16.06 17.67 16.06 17.67 16.06 17.67C14.58 17.67 13.66 17.67 13.29 17.67C12.61 17.67 12.06 18.21 12.06 18.89C12.06 19.24 12.06 18.87 12.06 19.17C12.06 19.97 12.71 20.62 13.51 20.62C15 20.62 17.63 20.62 19.03 20.62C20.08 20.62 20.92 21.47 20.92 22.51C20.92 22.92 20.92 22.25 20.92 22.66C20.92 23.71 20.08 24.56 19.03 24.56C16.65 24.56 11.41 24.56 9.04 24.56C7.99 24.56 7.14 25.4 7.14 26.45C7.14 26.86 7.14 26.1 7.14 26.49C7.14 27.59 8.04 28.49 9.15 28.49C11.25 28.49 16.48 28.49 24.86 28.49" id="j7AboZ4vYa"></path><path d="M16.98 14.99C13.46 14.99 10.59 12.12 10.59 8.6C10.59 5.07 13.46 2.2 16.98 2.2C20.51 2.2 23.38 5.07 23.38 8.6C23.38 12.12 20.51 14.99 16.98 14.99Z" id="c7kuBmQjM"></path><path d="M24.84 26.75L25.67 26.75L25.67 30.25L24.84 30.25L24.84 26.75Z" id="d3rCIH2law"></path></defs><g><g><g><g><use xlink:href="#cjM79RWJu" opacity="1" fill-opacity="0" stroke="#333333" stroke-width="3" stroke-opacity="1"></use></g></g><g><use xlink:href="#a12Z6HZVQa" opacity="1" fill="#aaaaaa" fill-opacity="1"></use><g><use xlink:href="#a12Z6HZVQa" opacity="1" fill-opacity="0" stroke="#000000" stroke-width="1" stroke-opacity="0"></use></g></g><g><use xlink:href="#b3lAMWYCZF" opacity="1" fill="#000000" fill-opacity="0"></use><g><use xlink:href="#b3lAMWYCZF" opacity="1" fill-opacity="0" stroke="#aaaaaa" stroke-width="3.5" stroke-opacity="1"></use></g></g><g><use xlink:href="#j7AboZ4vYa" opacity="1" fill="#000000" fill-opacity="0"></use><g><use xlink:href="#j7AboZ4vYa" opacity="1" fill-opacity="0" stroke="#333333" stroke-width="2" stroke-opacity="1"></use></g></g><g><use xlink:href="#c7kuBmQjM" opacity="1" fill="#333333" fill-opacity="1"></use><g><use xlink:href="#c7kuBmQjM" opacity="1" fill-opacity="0" stroke="#000000" stroke-width="1" stroke-opacity="0"></use></g></g><g><use xlink:href="#d3rCIH2law" opacity="1" fill="#aaaaaa" fill-opacity="1"></use></g></g></g></svg>