<?xml version="1.0" encoding="UTF-8" standalone="no"?>
<!DOCTYPE svg PUBLIC "-//W3C//DTD SVG 1.1//EN" "http://www.w3.org/Graphics/SVG/1.1/DTD/svg11.dtd">
<svg version="1.1" xmlns="http://www.w3.org/2000/svg" xmlns:xlink="http://www.w3.org/1999/xlink" preserveAspectRatio="xMidYMid meet" viewBox="0 0 32 32" width="32" height="32"><defs><path d="" id="b4no3CqSCy"></path><path d="M18.18 2.01L18.21 2.01L18.23 2.02L18.26 2.03L18.28 2.04L18.3 2.05L18.33 2.06L18.35 2.07L18.37 2.09L18.39 2.1L18.41 2.12L18.43 2.13L18.45 2.15L18.47 2.17L18.48 2.19L18.5 2.21L18.52 2.24L18.53 2.26L18.55 2.28L18.56 2.31L18.58 2.33L18.59 2.36L18.61 2.38L18.62 2.42L18.64 2.44L18.65 2.48L18.66 2.51L18.68 2.54L18.69 2.57L18.7 2.6L18.71 2.63L18.73 2.67L18.74 2.7L18.75 2.74L18.76 2.77L18.77 2.81L18.79 2.84L18.8 2.88L19.4 5.15L19.59 5.21L20.01 5.36L20.43 5.52L20.83 5.7L21.23 5.9L21.26 5.91L23.3 4.73L23.33 4.72L23.37 4.7L23.4 4.68L23.43 4.67L23.46 4.65L23.5 4.64L23.53 4.62L23.57 4.61L23.59 4.59L23.62 4.58L23.66 4.57L23.69 4.55L23.72 4.54L23.75 4.53L23.78 4.52L23.81 4.51L23.84 4.5L23.87 4.5L23.89 4.49L23.92 4.48L23.95 4.47L23.98 4.47L24.01 4.47L24.03 4.47L24.06 4.47L24.09 4.47L24.11 4.47L24.14 4.47L24.16 4.47L24.19 4.48L24.21 4.49L24.23 4.5L24.26 4.5L24.28 4.51L24.3 4.53L24.33 4.54L24.35 4.56L24.37 4.57L24.39 4.59L24.41 4.61L27.38 7.57L27.4 7.6L27.42 7.62L27.44 7.64L27.45 7.66L27.47 7.68L27.48 7.71L27.49 7.74L27.5 7.75L27.51 7.78L27.51 7.8L27.52 7.83L27.53 7.86L27.53 7.88L27.53 7.91L27.53 7.94L27.53 7.96L27.53 7.99L27.53 8.02L27.53 8.05L27.52 8.08L27.52 8.11L27.51 8.13L27.5 8.16L27.49 8.19L27.48 8.22L27.47 8.25L27.46 8.28L27.45 8.31L27.44 8.34L27.43 8.38L27.41 8.41L27.4 8.44L27.38 8.47L27.37 8.5L27.35 8.53L27.33 8.56L27.31 8.59L27.3 8.63L27.28 8.66L27.26 8.69L26.08 10.73L26.1 10.77L26.3 11.17L26.48 11.57L26.64 11.98L26.79 12.4L26.85 12.59L29.12 13.2L29.16 13.21L29.19 13.21L29.23 13.22L29.26 13.23L29.3 13.24L29.33 13.25L29.37 13.27L29.4 13.28L29.43 13.29L29.46 13.3L29.49 13.31L29.52 13.33L29.55 13.34L29.58 13.35L29.61 13.37L29.64 13.38L29.67 13.4L29.69 13.41L29.72 13.43L29.74 13.44L29.76 13.46L29.79 13.48L29.81 13.5L29.83 13.52L29.85 13.54L29.87 13.56L29.88 13.58L29.9 13.6L29.91 13.62L29.93 13.64L29.94 13.66L29.95 13.69L29.96 13.71L29.97 13.74L29.98 13.76L29.99 13.79L29.99 13.81L29.99 13.84L30 13.87L30 13.9L30 18.1L30 18.13L29.99 18.15L29.99 18.18L29.99 18.21L29.98 18.23L29.97 18.26L29.96 18.28L29.95 18.3L29.94 18.33L29.93 18.35L29.91 18.37L29.9 18.39L29.88 18.41L29.87 18.43L29.85 18.45L29.83 18.47L29.81 18.48L29.79 18.5L29.76 18.52L29.74 18.53L29.72 18.55L29.69 18.56L29.67 18.58L29.64 18.59L29.61 18.61L29.58 18.62L29.55 18.64L29.52 18.65L29.49 18.66L29.46 18.68L29.43 18.69L29.4 18.7L29.37 18.71L29.33 18.73L29.3 18.74L29.26 18.75L29.23 18.76L29.19 18.77L29.16 18.79L29.12 18.8L26.85 19.4L26.79 19.59L26.64 20.01L26.48 20.43L26.3 20.83L26.1 21.23L26.08 21.26L27.26 23.3L27.28 23.33L27.3 23.36L27.31 23.39L27.33 23.42L27.35 23.46L27.37 23.49L27.38 23.52L27.4 23.55L27.41 23.58L27.43 23.61L27.44 23.64L27.45 23.67L27.46 23.7L27.47 23.73L27.48 23.76L27.49 23.8L27.5 23.82L27.51 23.85L27.52 23.89L27.52 23.91L27.53 23.94L27.53 23.97L27.53 24L27.53 24.02L27.53 24.05L27.53 24.08L27.53 24.1L27.53 24.13L27.52 24.16L27.51 24.18L27.51 24.21L27.5 24.23L27.49 24.26L27.48 24.28L27.47 24.3L27.45 24.33L27.44 24.35L27.42 24.37L27.4 24.39L27.38 24.41L24.41 27.38L24.39 27.4L24.37 27.42L24.35 27.44L24.33 27.45L24.3 27.46L24.28 27.48L24.26 27.49L24.23 27.5L24.21 27.5L24.19 27.51L24.16 27.52L24.14 27.52L24.11 27.52L24.09 27.52L24.06 27.52L24.03 27.52L24.01 27.52L23.98 27.52L23.95 27.51L23.92 27.51L23.89 27.5L23.87 27.5L23.84 27.49L23.81 27.48L23.78 27.47L23.75 27.46L23.72 27.45L23.69 27.44L23.66 27.43L23.62 27.41L23.59 27.4L23.57 27.39L23.53 27.37L23.5 27.36L23.46 27.34L23.43 27.33L23.4 27.31L23.37 27.29L23.33 27.28L23.3 27.26L21.26 26.08L21.23 26.1L20.83 26.3L20.43 26.48L20.01 26.64L19.59 26.79L19.4 26.85L18.8 29.12L18.79 29.16L18.77 29.19L18.76 29.23L18.75 29.26L18.74 29.3L18.73 29.33L18.71 29.37L18.7 29.4L18.69 29.43L18.68 29.46L18.66 29.49L18.65 29.52L18.64 29.55L18.62 29.58L18.61 29.61L18.59 29.64L18.58 29.67L18.56 29.69L18.55 29.72L18.53 29.74L18.52 29.76L18.5 29.79L18.48 29.81L18.47 29.83L18.45 29.85L18.43 29.87L18.41 29.88L18.39 29.9L18.37 29.91L18.35 29.93L18.33 29.94L18.3 29.95L18.28 29.96L18.26 29.97L18.23 29.98L18.21 29.99L18.18 29.99L18.15 29.99L18.13 30L18.1 30L13.9 30L13.87 30L13.84 29.99L13.81 29.99L13.79 29.99L13.76 29.98L13.74 29.97L13.71 29.96L13.69 29.95L13.66 29.94L13.64 29.93L13.62 29.91L13.6 29.9L13.58 29.88L13.56 29.87L13.54 29.85L13.52 29.83L13.5 29.81L13.48 29.79L13.46 29.76L13.44 29.74L13.43 29.72L13.41 29.69L13.4 29.67L13.38 29.64L13.37 29.61L13.35 29.58L13.34 29.55L13.33 29.52L13.31 29.49L13.3 29.46L13.29 29.43L13.28 29.4L13.27 29.37L13.25 29.33L13.24 29.3L13.23 29.26L13.22 29.23L13.21 29.19L13.21 29.16L13.2 29.12L12.59 26.85L12.4 26.79L11.98 26.64L11.57 26.48L11.17 26.3L10.77 26.1L10.72 26.08L8.7 27.25L8.67 27.27L8.63 27.29L8.6 27.31L8.57 27.32L8.54 27.34L8.51 27.36L8.48 27.37L8.45 27.39L8.41 27.4L8.38 27.42L8.35 27.43L8.32 27.44L8.29 27.46L8.26 27.47L8.23 27.48L8.2 27.49L8.17 27.49L8.14 27.5L8.11 27.51L8.08 27.51L8.06 27.52L8.03 27.52L8 27.52L7.97 27.52L7.94 27.52L7.92 27.52L7.89 27.52L7.86 27.52L7.84 27.51L7.82 27.51L7.79 27.5L7.76 27.49L7.74 27.48L7.72 27.47L7.69 27.46L7.67 27.44L7.65 27.43L7.62 27.41L7.61 27.39L7.58 27.37L4.62 24.4L4.6 24.38L4.58 24.36L4.56 24.34L4.55 24.32L4.54 24.3L4.52 24.27L4.51 24.25L4.5 24.23L4.5 24.2L4.49 24.18L4.48 24.15L4.48 24.13L4.47 24.1L4.47 24.08L4.47 24.05L4.47 24.02L4.47 24L4.48 23.97L4.49 23.94L4.49 23.91L4.5 23.89L4.5 23.86L4.51 23.83L4.51 23.8L4.53 23.77L4.54 23.74L4.55 23.71L4.56 23.68L4.57 23.65L4.59 23.62L4.6 23.59L4.61 23.55L4.63 23.52L4.64 23.49L4.66 23.46L4.67 23.42L4.69 23.39L4.71 23.36L4.72 23.32L4.74 23.3L5.92 21.26L5.9 21.23L5.7 20.83L5.52 20.43L5.36 20.01L5.21 19.59L5.15 19.4L2.88 18.8L2.84 18.79L2.81 18.77L2.77 18.76L2.74 18.75L2.7 18.74L2.67 18.73L2.63 18.71L2.6 18.7L2.57 18.69L2.54 18.68L2.51 18.66L2.48 18.65L2.44 18.64L2.42 18.62L2.38 18.61L2.36 18.59L2.33 18.58L2.31 18.56L2.28 18.55L2.26 18.53L2.24 18.52L2.21 18.5L2.19 18.48L2.17 18.47L2.15 18.45L2.13 18.43L2.12 18.41L2.1 18.39L2.09 18.37L2.07 18.35L2.06 18.33L2.05 18.3L2.04 18.28L2.03 18.26L2.02 18.23L2.01 18.21L2.01 18.18L2.01 18.15L2 18.13L2 18.1L2 13.9L2 13.87L2.01 13.84L2.01 13.81L2.01 13.79L2.02 13.76L2.03 13.74L2.04 13.71L2.05 13.69L2.06 13.66L2.07 13.64L2.09 13.62L2.1 13.6L2.12 13.58L2.13 13.56L2.15 13.54L2.17 13.52L2.19 13.5L2.21 13.48L2.24 13.46L2.26 13.44L2.28 13.43L2.31 13.41L2.33 13.4L2.36 13.38L2.38 13.37L2.42 13.35L2.44 13.34L2.48 13.33L2.51 13.31L2.54 13.3L2.57 13.29L2.6 13.28L2.63 13.27L2.67 13.25L2.7 13.24L2.74 13.23L2.77 13.22L2.81 13.21L2.84 13.21L2.88 13.2L5.15 12.59L5.21 12.4L5.36 11.98L5.52 11.57L5.7 11.17L5.9 10.77L5.92 10.73L4.74 8.7L4.72 8.66L4.71 8.63L4.69 8.6L4.67 8.56L4.66 8.53L4.64 8.5L4.63 8.47L4.61 8.43L4.6 8.4L4.59 8.37L4.57 8.34L4.56 8.31L4.55 8.28L4.54 8.25L4.53 8.22L4.51 8.19L4.51 8.16L4.5 8.13L4.5 8.1L4.49 8.07L4.49 8.04L4.48 8.02L4.47 7.99L4.47 7.96L4.47 7.94L4.47 7.91L4.47 7.88L4.48 7.86L4.48 7.83L4.49 7.81L4.5 7.78L4.5 7.76L4.51 7.74L4.52 7.71L4.54 7.69L4.55 7.67L4.56 7.65L4.58 7.62L4.6 7.61L4.62 7.58L7.58 4.62L7.61 4.6L7.62 4.58L7.65 4.56L7.67 4.55L7.69 4.53L7.72 4.52L7.74 4.51L7.76 4.5L7.79 4.49L7.82 4.49L7.84 4.47L7.86 4.47L7.89 4.47L7.92 4.47L7.94 4.47L7.97 4.47L8 4.47L8.03 4.47L8.06 4.47L8.08 4.47L8.11 4.48L8.14 4.49L8.17 4.5L8.2 4.51L8.23 4.51L8.26 4.53L8.29 4.54L8.32 4.55L8.35 4.56L8.38 4.57L8.41 4.59L8.45 4.6L8.48 4.62L8.51 4.63L8.54 4.64L8.57 4.67L8.6 4.68L8.63 4.7L8.67 4.72L8.7 4.74L10.73 5.92L10.77 5.9L11.17 5.7L11.57 5.52L11.98 5.36L12.4 5.21L12.59 5.15L13.2 2.88L13.21 2.84L13.21 2.81L13.22 2.77L13.23 2.74L13.24 2.7L13.25 2.67L13.27 2.63L13.28 2.6L13.29 2.57L13.3 2.54L13.31 2.51L13.33 2.48L13.34 2.44L13.35 2.42L13.37 2.38L13.38 2.36L13.4 2.33L13.41 2.31L13.43 2.28L13.44 2.26L13.46 2.24L13.48 2.21L13.5 2.19L13.52 2.17L13.54 2.15L13.56 2.13L13.58 2.12L13.6 2.1L13.62 2.09L13.64 2.07L13.66 2.06L13.69 2.05L13.71 2.04L13.74 2.03L13.76 2.02L13.79 2.01L13.81 2.01L13.84 2.01L13.87 2L13.9 2L18.1 2L18.13 2L18.15 2.01L18.18 2.01ZM15.25 9.92L15 9.95L14.76 10L14.53 10.05L14.29 10.11L14.06 10.18L13.84 10.27L13.61 10.35L13.4 10.45L13.18 10.56L12.97 10.67L12.77 10.79L12.57 10.92L12.38 11.05L12.19 11.2L12.01 11.35L11.84 11.51L11.67 11.67L11.51 11.84L11.35 12.01L11.2 12.19L11.05 12.38L10.92 12.57L10.79 12.77L10.67 12.97L10.56 13.18L10.45 13.4L10.35 13.61L10.27 13.84L10.18 14.06L10.11 14.29L10.05 14.53L10 14.76L9.95 15L9.92 15.25L9.89 15.5L9.88 15.75L9.87 16L9.88 16.25L9.89 16.5L9.92 16.75L9.95 16.99L10 17.23L10.05 17.47L10.11 17.7L10.18 17.93L10.27 18.16L10.35 18.38L10.45 18.6L10.56 18.81L10.67 19.02L10.79 19.22L10.92 19.42L11.05 19.61L11.2 19.8L11.35 19.98L11.51 20.16L11.67 20.33L11.84 20.49L12.01 20.65L12.19 20.8L12.38 20.94L12.57 21.08L12.77 21.2L12.97 21.33L13.18 21.44L13.4 21.55L13.61 21.64L13.84 21.73L14.06 21.82L14.29 21.89L14.53 21.94L14.76 22L15 22.05L15.25 22.08L15.5 22.1L15.75 22.12L16 22.12L16.25 22.12L16.5 22.1L16.75 22.08L16.99 22.05L17.23 22L17.47 21.94L17.7 21.89L17.93 21.82L18.16 21.73L18.38 21.64L18.6 21.55L18.81 21.44L19.02 21.33L19.22 21.2L19.42 21.08L19.61 20.94L19.8 20.8L19.98 20.65L20.16 20.49L20.33 20.33L20.49 20.16L20.65 19.98L20.8 19.8L20.94 19.61L21.08 19.42L21.2 19.22L21.33 19.02L21.44 18.81L21.55 18.6L21.64 18.38L21.73 18.16L21.82 17.93L21.89 17.7L21.94 17.47L22 17.23L22.05 16.99L22.08 16.75L22.1 16.5L22.12 16.25L22.12 16L22.12 15.75L22.1 15.5L22.08 15.25L22.05 15L22 14.76L21.94 14.53L21.89 14.29L21.82 14.06L21.73 13.84L21.64 13.61L21.55 13.4L21.44 13.18L21.33 12.97L21.2 12.77L21.08 12.57L20.94 12.38L20.8 12.19L20.65 12.01L20.49 11.84L20.33 11.67L20.16 11.51L19.98 11.35L19.8 11.2L19.61 11.05L19.42 10.92L19.22 10.79L19.02 10.67L18.81 10.56L18.6 10.45L18.38 10.35L18.16 10.27L17.93 10.18L17.7 10.11L17.47 10.05L17.23 10L16.99 9.95L16.75 9.92L16.5 9.89L16.25 9.88L16 9.87L15.75 9.88L15.5 9.89L15.25 9.92Z" id="b2MdeevL8o"></path></defs><g><g><g><g><use xlink:href="#b4no3CqSCy" opacity="1" fill-opacity="0" stroke="#333333" stroke-width="3" stroke-opacity="1"></use></g></g><g><use xlink:href="#b2MdeevL8o" opacity="1" fill="#333333" fill-opacity="1"></use><g><use xlink:href="#b2MdeevL8o" opacity="1" fill-opacity="0" stroke="#aaaaaa" stroke-width="1" stroke-opacity="1"></use></g></g></g></g></svg>