<?xml version="1.0" encoding="UTF-8" standalone="no"?>
<!DOCTYPE svg PUBLIC "-//W3C//DTD SVG 1.1//EN" "http://www.w3.org/Graphics/SVG/1.1/DTD/svg11.dtd">
<svg version="1.1" xmlns="http://www.w3.org/2000/svg" xmlns:xlink="http://www.w3.org/1999/xlink" preserveAspectRatio="xMidYMid meet" viewBox="0 0 32 32" width="32" height="32"><defs><path d="M21.87 15.93C21.87 19.21 19.21 21.87 15.93 21.87C12.65 21.87 9.99 19.21 9.99 15.93C9.99 12.65 12.65 9.99 15.93 9.99C19.21 9.99 21.87 12.65 21.87 15.93Z" id="d2hGH2Zqh"></path><path d="" id="b4no3CqSCy"></path><path d="M10.97 6.48C10.97 8.96 8.96 10.97 6.48 10.97C4.01 10.97 2 8.96 2 6.48C2 4.01 4.01 2 6.48 2C8.96 2 10.97 4.01 10.97 6.48Z" id="d1wSrZ1BeP"></path><path d="" id="c2o62SssnP"></path><path d="M4.69 4.69C4.69 10.93 4.69 14.82 4.69 16.38C4.69 22.8 9.89 28 16.31 28C18.64 28 14.21 28 16.59 28C22.89 28 28 22.89 28 16.59C28 14.21 28 18.01 28 15.51C28 9.53 23.16 4.69 17.18 4.69C15.52 4.69 11.35 4.69 4.69 4.69" id="dkQNnnf36"></path><path d="M10.48 6.48C10.48 8.69 8.69 10.48 6.48 10.48C4.28 10.48 2.48 8.69 2.48 6.48C2.48 4.28 4.28 2.48 6.48 2.48C8.69 2.48 10.48 4.28 10.48 6.48Z" id="ebyz1J01A"></path></defs><g><g><g><use xlink:href="#d2hGH2Zqh" opacity="1" fill="#999999" fill-opacity="1"></use><g><use xlink:href="#d2hGH2Zqh" opacity="1" fill-opacity="0" stroke="#333333" stroke-width="1" stroke-opacity="1"></use></g></g><g><g><use xlink:href="#b4no3CqSCy" opacity="1" fill-opacity="0" stroke="#333333" stroke-width="3" stroke-opacity="1"></use></g></g><g><use xlink:href="#d1wSrZ1BeP" opacity="1" fill="#999999" fill-opacity="1"></use><g><use xlink:href="#d1wSrZ1BeP" opacity="1" fill-opacity="0" stroke="#333333" stroke-width="1" stroke-opacity="1"></use></g></g><g><g><use xlink:href="#c2o62SssnP" opacity="1" fill-opacity="0" stroke="#333333" stroke-width="3" stroke-opacity="1"></use></g></g><g><g><use xlink:href="#dkQNnnf36" opacity="1" fill-opacity="0" stroke="#333333" stroke-width="4" stroke-opacity="1"></use></g><g><use xlink:href="#dkQNnnf36" opacity="1" fill-opacity="0" stroke="#999999" stroke-width="2" stroke-opacity="1"></use></g></g><g><use xlink:href="#ebyz1J01A" opacity="1" fill="#999999" fill-opacity="1"></use></g></g></g></svg>