<?xml version="1.0" encoding="UTF-8" standalone="no"?>
<!DOCTYPE svg PUBLIC "-//W3C//DTD SVG 1.1//EN" "http://www.w3.org/Graphics/SVG/1.1/DTD/svg11.dtd">
<svg version="1.1" xmlns="http://www.w3.org/2000/svg" xmlns:xlink="http://www.w3.org/1999/xlink" preserveAspectRatio="xMidYMid meet" viewBox="0 0 64 64" width="64" height="64"><defs><path d="M46.79 34C46.79 41.06 41.06 46.79 34 46.79C26.94 46.79 21.21 41.06 21.21 34C21.21 26.94 26.94 21.21 34 21.21C41.06 21.21 46.79 26.94 46.79 34Z" id="b39hSbWwbp"></path><path d="" id="g1tNeCeMpC"></path><path d="M23.31 13.66C23.31 18.98 18.98 23.31 13.66 23.31C8.33 23.31 4 18.98 4 13.66C4 8.33 8.33 4 13.66 4C18.98 4 23.31 8.33 23.31 13.66Z" id="a3IOENyi8k"></path><path d="" id="eu1Gj2j4"></path><path d="M9.79 9.79C9.79 23.23 9.79 31.62 9.79 34.98C9.79 48.8 20.99 60 34.81 60C39.85 60 30.3 60 35.42 60C49 60 60 49 60 35.42C60 30.3 60 38.48 60 33.1C60 20.23 49.57 9.79 36.7 9.79C33.11 9.79 24.14 9.79 9.79 9.79" id="c1TFt9E01H"></path><path d="M22.27 13.66C22.27 18.41 18.41 22.27 13.66 22.27C8.9 22.27 5.04 18.41 5.04 13.66C5.04 8.9 8.9 5.04 13.66 5.04C18.41 5.04 22.27 8.9 22.27 13.66Z" id="a6ecRVoML"></path></defs><g><g><g><use xlink:href="#b39hSbWwbp" opacity="1" fill="#999999" fill-opacity="1"></use><g><use xlink:href="#b39hSbWwbp" opacity="1" fill-opacity="0" stroke="#333333" stroke-width="1" stroke-opacity="1"></use></g></g><g><g><use xlink:href="#g1tNeCeMpC" opacity="1" fill-opacity="0" stroke="#333333" stroke-width="3" stroke-opacity="1"></use></g></g><g><use xlink:href="#a3IOENyi8k" opacity="1" fill="#999999" fill-opacity="1"></use><g><use xlink:href="#a3IOENyi8k" opacity="1" fill-opacity="0" stroke="#333333" stroke-width="1" stroke-opacity="1"></use></g></g><g><g><use xlink:href="#eu1Gj2j4" opacity="1" fill-opacity="0" stroke="#333333" stroke-width="3" stroke-opacity="1"></use></g></g><g><g><use xlink:href="#c1TFt9E01H" opacity="1" fill-opacity="0" stroke="#333333" stroke-width="5" stroke-opacity="1"></use></g><g><use xlink:href="#c1TFt9E01H" opacity="1" fill-opacity="0" stroke="#999999" stroke-width="3" stroke-opacity="1"></use></g></g><g><use xlink:href="#a6ecRVoML" opacity="1" fill="#999999" fill-opacity="1"></use><g><use xlink:href="#a6ecRVoML" opacity="1" fill-opacity="0" stroke="#999999" stroke-width="1" stroke-opacity="1"></use></g></g></g></g></svg>