<?xml version="1.0" encoding="UTF-8" standalone="no"?>
<!DOCTYPE svg PUBLIC "-//W3C//DTD SVG 1.1//EN" "http://www.w3.org/Graphics/SVG/1.1/DTD/svg11.dtd">
<svg version="1.1" xmlns="http://www.w3.org/2000/svg" xmlns:xlink="http://www.w3.org/1999/xlink" preserveAspectRatio="xMidYMid meet" viewBox="0 0 64 64" width="64" height="64"><defs><path d="M49.38 34.9C49.38 42.89 42.89 49.38 34.9 49.38C26.9 49.38 20.41 42.89 20.41 34.9C20.41 26.9 26.9 20.41 34.9 20.41C42.89 20.41 49.38 26.9 49.38 34.9Z" id="d3s2nlWmcO"></path><path d="" id="d3WdSxuUeY"></path><path d="M23.31 13.66C23.31 18.98 18.98 23.31 13.66 23.31C8.33 23.31 4 18.98 4 13.66C4 8.33 8.33 4 13.66 4C18.98 4 23.31 8.33 23.31 13.66Z" id="d8UXF1DPXh"></path><path d="" id="b2IX2QhsZK"></path><path d="M9.79 9.79C9.79 23.42 9.79 31.94 9.79 35.35C9.79 48.96 20.83 60 34.44 60C39.56 60 29.51 60 34.44 60C48.56 60 60 48.56 60 34.44C60 29.51 60 39.56 60 34.44C60 20.83 48.96 9.79 35.35 9.79C31.94 9.79 23.42 9.79 9.79 9.79" id="bcK9b4pmF"></path><path d="M22.34 13.75C22.34 18.54 18.45 22.44 13.66 22.44C8.86 22.44 4.97 18.54 4.97 13.75C4.97 8.95 8.86 5.06 13.66 5.06C18.45 5.06 22.34 8.95 22.34 13.75Z" id="chHDkAB1g"></path></defs><g><g><g><use xlink:href="#d3s2nlWmcO" opacity="1" fill="#333333" fill-opacity="1"></use><g><use xlink:href="#d3s2nlWmcO" opacity="1" fill-opacity="0" stroke="#999999" stroke-width="2" stroke-opacity="1"></use></g></g><g><g><use xlink:href="#d3WdSxuUeY" opacity="1" fill-opacity="0" stroke="#333333" stroke-width="3" stroke-opacity="1"></use></g></g><g><use xlink:href="#d8UXF1DPXh" opacity="1" fill="#333333" fill-opacity="1"></use><g><use xlink:href="#d8UXF1DPXh" opacity="1" fill-opacity="0" stroke="#999999" stroke-width="2" stroke-opacity="1"></use></g></g><g><g><use xlink:href="#b2IX2QhsZK" opacity="1" fill-opacity="0" stroke="#333333" stroke-width="3" stroke-opacity="1"></use></g></g><g><g><use xlink:href="#bcK9b4pmF" opacity="1" fill-opacity="0" stroke="#999999" stroke-width="6.5" stroke-opacity="1"></use></g><g><use xlink:href="#bcK9b4pmF" opacity="1" fill-opacity="0" stroke="#333333" stroke-width="4" stroke-opacity="1"></use></g></g><g><use xlink:href="#chHDkAB1g" opacity="1" fill="#333333" fill-opacity="1"></use></g></g></g></svg>