<?xml version="1.0" encoding="UTF-8" standalone="no"?>
<!DOCTYPE svg PUBLIC "-//W3C//DTD SVG 1.1//EN" "http://www.w3.org/Graphics/SVG/1.1/DTD/svg11.dtd">
<svg version="1.1" xmlns="http://www.w3.org/2000/svg" xmlns:xlink="http://www.w3.org/1999/xlink" preserveAspectRatio="xMidYMid meet" viewBox="0 0 24 24" width="24" height="24"><defs><path d="M3.6 1.5L14.83 1.5L17.64 4.07L20.45 6.41L20.45 22.56L3.6 22.56L3.6 1.5Z" id="b8xFKt94I"></path><path d="M6.41 4.31L6.41 19.75L17.64 19.75L17.64 8.52L19.75 8.52L19.75 21.86L4.3 21.86L4.3 2.2L12.73 2.2L12.73 4.31L6.41 4.31ZM14.1 2.2L19.75 7.28L14.1 7.28L14.1 2.2Z" id="asjs98zy6"></path><path d="M13.43 5.01L13.43 19.05L7.11 19.05L7.11 5.01L13.43 5.01Z" id="cfwjCBm6E"></path><path d="M16.94 7.82L16.94 19.05L12.03 19.05L12.03 7.82L16.94 7.82Z" id="e4yEk56chk"></path></defs><g><g><g><use xlink:href="#b8xFKt94I" opacity="1" fill="#aaaaaa" fill-opacity="1"></use></g><g><use xlink:href="#asjs98zy6" opacity="1" fill="#333333" fill-opacity="1"></use><g><use xlink:href="#asjs98zy6" opacity="1" fill-opacity="0" stroke="#000000" stroke-width="1" stroke-opacity="0"></use></g></g><g><use xlink:href="#cfwjCBm6E" opacity="1" fill="#333333" fill-opacity="1"></use></g><g><use xlink:href="#e4yEk56chk" opacity="1" fill="#333333" fill-opacity="1"></use></g></g></g></svg>