<?xml version="1.0" encoding="UTF-8" standalone="no"?>
<!DOCTYPE svg PUBLIC "-//W3C//DTD SVG 1.1//EN" "http://www.w3.org/Graphics/SVG/1.1/DTD/svg11.dtd">
<svg version="1.1" xmlns="http://www.w3.org/2000/svg" xmlns:xlink="http://www.w3.org/1999/xlink" preserveAspectRatio="xMidYMid meet" viewBox="0 0 32 32" width="32" height="32"><defs><path d="M2 30L2 2L30 2L30 30L2 30ZM5.5 26.5L10.75 21.25L14.25 23L19.5 16L26.5 25.33L26.5 5.5L5.5 5.5L5.5 26.5ZM11.88 9.45L12 9.46L12.12 9.48L12.24 9.5L12.36 9.53L12.48 9.56L12.59 9.59L12.71 9.63L12.82 9.68L12.93 9.73L13.03 9.78L13.14 9.84L13.24 9.9L13.34 9.96L13.43 10.03L13.53 10.1L13.62 10.17L13.71 10.25L13.79 10.33L13.87 10.42L13.95 10.51L14.03 10.6L14.1 10.69L14.16 10.79L14.23 10.89L14.29 10.99L14.35 11.09L14.4 11.2L14.45 11.31L14.49 11.42L14.53 11.53L14.57 11.65L14.6 11.76L14.63 11.88L14.65 12L14.66 12.13L14.68 12.25L14.68 12.37L14.69 12.5L14.68 12.63L14.68 12.75L14.66 12.87L14.65 13L14.63 13.12L14.6 13.24L14.57 13.35L14.53 13.47L14.49 13.58L14.45 13.69L14.4 13.8L14.35 13.91L14.29 14.01L14.23 14.11L14.16 14.21L14.1 14.31L14.03 14.4L13.95 14.49L13.87 14.58L13.79 14.67L13.71 14.75L13.62 14.83L13.53 14.9L13.43 14.97L13.34 15.04L13.24 15.1L13.14 15.16L13.03 15.22L12.93 15.27L12.82 15.32L12.71 15.37L12.59 15.41L12.48 15.44L12.36 15.47L12.24 15.5L12.12 15.52L12 15.54L11.88 15.55L11.75 15.56L11.63 15.56L11.5 15.56L11.37 15.55L11.25 15.54L11.13 15.52L11.01 15.5L10.89 15.47L10.77 15.44L10.66 15.41L10.54 15.37L10.43 15.32L10.32 15.27L10.22 15.22L10.11 15.16L10.01 15.1L9.91 15.04L9.82 14.97L9.72 14.9L9.63 14.83L9.54 14.75L9.46 14.67L9.38 14.58L9.3 14.49L9.22 14.4L9.15 14.31L9.09 14.21L9.02 14.11L8.96 14.01L8.9 13.91L8.85 13.8L8.8 13.69L8.76 13.58L8.72 13.47L8.68 13.35L8.65 13.24L8.62 13.12L8.6 13L8.59 12.87L8.57 12.75L8.57 12.63L8.56 12.5L8.57 12.37L8.57 12.25L8.59 12.13L8.6 12L8.62 11.88L8.65 11.76L8.68 11.65L8.72 11.53L8.76 11.42L8.8 11.31L8.85 11.2L8.9 11.09L8.96 10.99L9.02 10.89L9.09 10.79L9.15 10.69L9.22 10.6L9.3 10.51L9.38 10.42L9.46 10.33L9.54 10.25L9.63 10.17L9.72 10.1L9.82 10.03L9.91 9.96L10.01 9.9L10.11 9.84L10.22 9.78L10.32 9.73L10.43 9.68L10.54 9.63L10.66 9.59L10.77 9.56L10.89 9.53L11.01 9.5L11.13 9.48L11.25 9.46L11.37 9.45L11.5 9.44L11.63 9.44L11.75 9.44L11.88 9.45Z" id="aaUx7VM0O"></path></defs><g><g><g><use xlink:href="#aaUx7VM0O" opacity="1" fill="#aaaaaa" fill-opacity="1"></use><g><use xlink:href="#aaUx7VM0O" opacity="1" fill-opacity="0" stroke="#333333" stroke-width="1" stroke-opacity="1"></use></g></g></g></g></svg>