<?xml version="1.0" encoding="UTF-8" standalone="no"?>
<!DOCTYPE svg PUBLIC "-//W3C//DTD SVG 1.1//EN" "http://www.w3.org/Graphics/SVG/1.1/DTD/svg11.dtd">
<svg version="1.1" xmlns="http://www.w3.org/2000/svg" xmlns:xlink="http://www.w3.org/1999/xlink" preserveAspectRatio="xMidYMid meet" viewBox="0 0 32 32" width="32" height="32"><defs><path d="" id="b4no3CqSCy"></path><path d="M18.15 12.75L18.17 12.75L18.18 12.75L18.2 12.76L18.22 12.76L18.23 12.77L18.24 12.78L18.26 12.79L18.27 12.8L18.29 12.81L18.3 12.82L18.31 12.83L18.32 12.84L18.33 12.85L18.35 12.86L18.36 12.88L18.37 12.89L18.38 12.91L18.39 12.92L18.4 12.94L18.41 12.96L18.42 12.97L18.43 12.99L18.44 13.01L18.44 13.03L18.45 13.05L18.46 13.07L18.47 13.09L18.48 13.11L18.49 13.13L18.49 13.15L18.5 13.17L18.51 13.2L18.52 13.22L18.53 13.24L18.54 13.26L18.54 13.29L18.55 13.31L18.94 14.78L19.07 14.82L19.34 14.92L19.61 15.02L19.87 15.14L20.13 15.27L20.15 15.28L21.48 14.51L21.5 14.5L21.52 14.49L21.54 14.48L21.56 14.47L21.58 14.46L21.6 14.45L21.62 14.44L21.65 14.43L21.67 14.42L21.69 14.41L21.71 14.41L21.73 14.4L21.75 14.39L21.76 14.38L21.78 14.38L21.8 14.37L21.82 14.37L21.84 14.36L21.86 14.36L21.88 14.35L21.9 14.35L21.91 14.35L21.93 14.34L21.95 14.34L21.97 14.34L21.99 14.34L22 14.34L22.02 14.35L22.04 14.35L22.05 14.35L22.07 14.36L22.08 14.36L22.1 14.37L22.11 14.37L22.13 14.38L22.14 14.39L22.16 14.4L22.17 14.41L22.18 14.42L22.2 14.43L24.13 16.36L24.14 16.38L24.15 16.39L24.16 16.4L24.17 16.42L24.18 16.43L24.19 16.45L24.2 16.46L24.2 16.48L24.21 16.49L24.21 16.51L24.22 16.53L24.22 16.54L24.22 16.56L24.22 16.58L24.22 16.6L24.22 16.61L24.22 16.64L24.22 16.65L24.22 16.67L24.22 16.69L24.21 16.71L24.21 16.73L24.2 16.75L24.2 16.77L24.19 16.78L24.19 16.8L24.18 16.82L24.17 16.84L24.16 16.86L24.15 16.88L24.15 16.9L24.14 16.92L24.13 16.94L24.12 16.96L24.11 16.98L24.09 17L24.08 17.02L24.07 17.04L24.06 17.06L24.05 17.08L23.28 18.41L23.29 18.44L23.42 18.7L23.54 18.96L23.65 19.23L23.74 19.5L23.78 19.62L25.26 20.01L25.28 20.02L25.3 20.02L25.32 20.03L25.35 20.04L25.37 20.04L25.39 20.05L25.42 20.06L25.44 20.07L25.46 20.08L25.48 20.08L25.5 20.09L25.52 20.1L25.54 20.11L25.56 20.12L25.57 20.13L25.59 20.14L25.61 20.15L25.63 20.16L25.64 20.17L25.66 20.18L25.67 20.19L25.69 20.2L25.7 20.21L25.71 20.22L25.73 20.23L25.74 20.25L25.75 20.26L25.76 20.27L25.77 20.29L25.78 20.3L25.79 20.32L25.79 20.33L25.8 20.35L25.81 20.36L25.81 20.38L25.82 20.4L25.82 20.41L25.82 20.43L25.82 20.45L25.82 20.47L25.82 23.2L25.82 23.22L25.82 23.23L25.82 23.25L25.82 23.27L25.81 23.28L25.81 23.3L25.8 23.32L25.79 23.33L25.79 23.34L25.78 23.36L25.77 23.37L25.76 23.39L25.75 23.4L25.74 23.41L25.73 23.42L25.71 23.43L25.7 23.45L25.69 23.46L25.67 23.47L25.66 23.48L25.64 23.49L25.63 23.5L25.61 23.51L25.59 23.52L25.57 23.53L25.56 23.54L25.54 23.55L25.52 23.56L25.5 23.57L25.48 23.57L25.46 23.58L25.44 23.59L25.42 23.6L25.39 23.61L25.37 23.61L25.35 23.62L25.32 23.63L25.3 23.64L25.28 23.64L25.26 23.65L23.78 24.05L23.74 24.17L23.65 24.44L23.54 24.71L23.42 24.97L23.29 25.23L23.28 25.25L24.05 26.58L24.06 26.6L24.07 26.62L24.08 26.64L24.09 26.66L24.11 26.68L24.12 26.7L24.13 26.72L24.14 26.74L24.15 26.76L24.15 26.78L24.16 26.8L24.17 26.82L24.18 26.84L24.19 26.86L24.19 26.87L24.2 26.89L24.2 26.91L24.21 26.93L24.21 26.96L24.22 26.97L24.22 26.99L24.22 27.01L24.22 27.03L24.22 27.05L24.22 27.06L24.22 27.08L24.22 27.1L24.22 27.12L24.22 27.13L24.21 27.15L24.21 27.17L24.2 27.18L24.2 27.2L24.19 27.21L24.18 27.23L24.17 27.24L24.16 27.26L24.15 27.27L24.14 27.28L24.13 27.3L22.2 29.23L22.18 29.24L22.17 29.25L22.16 29.26L22.14 29.27L22.13 29.28L22.11 29.29L22.1 29.29L22.08 29.3L22.07 29.3L22.05 29.31L22.04 29.31L22.02 29.31L22 29.32L21.99 29.32L21.97 29.32L21.95 29.32L21.93 29.32L21.91 29.31L21.9 29.31L21.88 29.31L21.86 29.3L21.84 29.3L21.82 29.29L21.8 29.29L21.78 29.28L21.76 29.28L21.75 29.27L21.73 29.26L21.71 29.25L21.69 29.25L21.67 29.24L21.65 29.23L21.62 29.22L21.6 29.21L21.58 29.2L21.56 29.19L21.54 29.18L21.52 29.17L21.5 29.16L21.48 29.15L20.15 28.38L20.13 28.39L19.87 28.52L19.61 28.64L19.34 28.75L19.07 28.84L18.94 28.88L18.55 30.36L18.54 30.38L18.54 30.41L18.53 30.43L18.52 30.45L18.51 30.47L18.5 30.5L18.49 30.52L18.49 30.54L18.48 30.56L18.47 30.58L18.46 30.6L18.45 30.62L18.44 30.64L18.44 30.66L18.43 30.67L18.42 30.69L18.41 30.71L18.4 30.73L18.39 30.74L18.38 30.76L18.37 30.77L18.36 30.79L18.35 30.8L18.33 30.81L18.32 30.83L18.31 30.84L18.3 30.85L18.29 30.86L18.27 30.87L18.26 30.88L18.24 30.89L18.23 30.9L18.22 30.91L18.2 30.91L18.18 30.92L18.17 30.92L18.15 30.92L18.13 30.93L18.12 30.93L18.1 30.93L15.37 30.93L15.35 30.93L15.33 30.93L15.31 30.92L15.3 30.92L15.28 30.92L15.26 30.91L15.25 30.91L15.23 30.9L15.22 30.89L15.2 30.88L15.19 30.87L15.17 30.86L15.16 30.85L15.15 30.84L15.13 30.83L15.12 30.81L15.11 30.8L15.1 30.79L15.09 30.77L15.07 30.76L15.06 30.74L15.05 30.73L15.04 30.71L15.03 30.69L15.02 30.67L15.01 30.66L15 30.64L14.99 30.62L14.99 30.6L14.98 30.58L14.97 30.56L14.96 30.54L14.96 30.52L14.95 30.5L14.94 30.47L14.94 30.45L14.93 30.43L14.92 30.41L14.92 30.38L14.91 30.36L14.52 28.88L14.4 28.84L14.13 28.75L13.86 28.64L13.59 28.52L13.34 28.39L13.31 28.38L11.99 29.14L11.97 29.15L11.95 29.17L11.93 29.18L11.91 29.19L11.89 29.2L11.87 29.21L11.85 29.22L11.83 29.23L11.81 29.24L11.79 29.25L11.77 29.26L11.75 29.27L11.73 29.27L11.71 29.28L11.69 29.29L11.67 29.29L11.65 29.3L11.63 29.3L11.61 29.31L11.59 29.31L11.57 29.31L11.55 29.31L11.54 29.32L11.52 29.32L11.5 29.32L11.48 29.32L11.47 29.32L11.45 29.31L11.43 29.31L11.42 29.31L11.4 29.3L11.38 29.3L11.37 29.29L11.35 29.28L11.34 29.27L11.32 29.27L11.31 29.26L11.3 29.25L11.28 29.23L11.27 29.22L9.34 27.29L9.33 27.28L9.31 27.26L9.3 27.25L9.29 27.24L9.29 27.22L9.28 27.21L9.27 27.19L9.27 27.18L9.26 27.16L9.26 27.15L9.25 27.13L9.25 27.11L9.25 27.1L9.25 27.08L9.25 27.06L9.25 27.05L9.25 27.03L9.25 27.01L9.25 26.99L9.26 26.98L9.26 26.96L9.27 26.94L9.27 26.92L9.28 26.9L9.28 26.88L9.29 26.86L9.3 26.84L9.3 26.82L9.31 26.8L9.32 26.78L9.33 26.76L9.34 26.74L9.35 26.72L9.36 26.7L9.37 26.68L9.38 26.66L9.39 26.64L9.4 26.61L9.41 26.59L9.42 26.57L10.18 25.25L10.17 25.23L10.04 24.97L9.92 24.71L9.82 24.44L9.72 24.17L9.68 24.05L8.21 23.65L8.18 23.64L8.16 23.64L8.14 23.63L8.11 23.62L8.09 23.61L8.07 23.61L8.05 23.6L8.03 23.59L8.01 23.58L7.99 23.57L7.97 23.57L7.95 23.56L7.93 23.55L7.91 23.54L7.89 23.53L7.87 23.52L7.86 23.51L7.84 23.5L7.82 23.49L7.81 23.48L7.79 23.47L7.78 23.46L7.76 23.45L7.75 23.43L7.74 23.42L7.73 23.41L7.72 23.4L7.7 23.39L7.69 23.37L7.68 23.36L7.67 23.34L7.67 23.33L7.66 23.32L7.65 23.3L7.65 23.28L7.64 23.27L7.64 23.25L7.64 23.23L7.64 23.22L7.64 23.2L7.64 20.47L7.64 20.45L7.64 20.43L7.64 20.41L7.64 20.4L7.65 20.38L7.65 20.36L7.66 20.35L7.67 20.33L7.67 20.32L7.68 20.3L7.69 20.29L7.7 20.27L7.72 20.26L7.73 20.25L7.74 20.23L7.75 20.22L7.76 20.21L7.78 20.2L7.79 20.19L7.81 20.18L7.82 20.17L7.84 20.16L7.86 20.15L7.87 20.14L7.89 20.13L7.91 20.12L7.93 20.11L7.95 20.1L7.97 20.09L7.99 20.08L8.01 20.08L8.03 20.07L8.05 20.06L8.07 20.05L8.09 20.04L8.11 20.04L8.14 20.03L8.16 20.02L8.18 20.02L8.21 20.01L9.68 19.62L9.72 19.5L9.82 19.23L9.92 18.96L10.04 18.7L10.17 18.44L10.19 18.41L9.42 17.09L9.41 17.07L9.4 17.05L9.39 17.02L9.38 17L9.37 16.98L9.36 16.96L9.35 16.94L9.34 16.92L9.33 16.9L9.32 16.88L9.31 16.86L9.3 16.84L9.3 16.82L9.29 16.8L9.28 16.78L9.28 16.76L9.27 16.74L9.27 16.72L9.26 16.71L9.26 16.69L9.25 16.67L9.25 16.65L9.25 16.63L9.25 16.61L9.25 16.6L9.25 16.58L9.25 16.56L9.25 16.55L9.25 16.53L9.26 16.51L9.26 16.5L9.27 16.48L9.27 16.47L9.28 16.45L9.29 16.44L9.29 16.42L9.3 16.41L9.31 16.4L9.33 16.38L9.34 16.37L11.27 14.44L11.28 14.43L11.3 14.41L11.31 14.4L11.32 14.39L11.34 14.39L11.35 14.38L11.37 14.37L11.38 14.36L11.4 14.36L11.42 14.35L11.43 14.35L11.45 14.35L11.47 14.34L11.48 14.34L11.5 14.34L11.52 14.34L11.54 14.34L11.55 14.34L11.57 14.35L11.59 14.35L11.61 14.35L11.63 14.36L11.65 14.36L11.67 14.37L11.69 14.37L11.71 14.38L11.73 14.39L11.75 14.39L11.77 14.4L11.79 14.41L11.81 14.42L11.83 14.43L11.85 14.44L11.87 14.45L11.89 14.46L11.91 14.47L11.93 14.48L11.95 14.49L11.97 14.51L11.99 14.52L13.31 15.29L13.34 15.27L13.59 15.14L13.86 15.02L14.13 14.92L14.4 14.82L14.52 14.78L14.91 13.31L14.92 13.29L14.92 13.26L14.93 13.24L14.94 13.22L14.94 13.2L14.95 13.17L14.96 13.15L14.96 13.13L14.97 13.11L14.98 13.09L14.99 13.07L14.99 13.05L15 13.03L15.01 13.01L15.02 12.99L15.03 12.97L15.04 12.96L15.05 12.94L15.06 12.92L15.07 12.91L15.09 12.89L15.1 12.88L15.11 12.86L15.12 12.85L15.13 12.84L15.15 12.83L15.16 12.82L15.17 12.81L15.19 12.8L15.2 12.79L15.22 12.78L15.23 12.77L15.25 12.76L15.26 12.76L15.28 12.75L15.3 12.75L15.31 12.75L15.33 12.74L15.35 12.74L15.37 12.74L18.1 12.74L18.12 12.74L18.13 12.74L18.15 12.75ZM16.25 17.88L16.09 17.91L15.93 17.93L15.78 17.97L15.63 18.01L15.47 18.06L15.33 18.11L15.18 18.17L15.04 18.23L14.9 18.3L14.77 18.37L14.64 18.45L14.51 18.53L14.38 18.62L14.26 18.72L14.15 18.81L14.03 18.91L13.92 19.02L13.81 19.13L13.71 19.25L13.62 19.36L13.52 19.48L13.43 19.61L13.35 19.74L13.27 19.87L13.2 20L13.13 20.14L13.06 20.28L13.01 20.43L12.96 20.58L12.91 20.73L12.87 20.88L12.83 21.03L12.81 21.19L12.78 21.35L12.77 21.5L12.76 21.67L12.75 21.83L12.76 21.99L12.77 22.16L12.78 22.32L12.81 22.48L12.83 22.64L12.87 22.79L12.91 22.94L12.96 23.09L13.01 23.24L13.06 23.38L13.13 23.53L13.2 23.66L13.27 23.8L13.35 23.93L13.43 24.06L13.52 24.18L13.62 24.3L13.71 24.42L13.81 24.54L13.92 24.65L14.03 24.75L14.15 24.85L14.26 24.95L14.38 25.05L14.51 25.13L14.64 25.22L14.77 25.29L14.9 25.37L15.04 25.43L15.18 25.5L15.33 25.56L15.47 25.61L15.63 25.66L15.78 25.7L15.93 25.73L16.09 25.76L16.25 25.78L16.4 25.8L16.57 25.81L16.73 25.81L16.89 25.81L17.06 25.8L17.22 25.78L17.38 25.76L17.53 25.73L17.69 25.7L17.84 25.66L17.99 25.61L18.14 25.56L18.28 25.5L18.42 25.43L18.56 25.37L18.7 25.29L18.83 25.22L18.95 25.13L19.08 25.05L19.2 24.95L19.32 24.85L19.43 24.75L19.55 24.65L19.65 24.54L19.75 24.42L19.85 24.3L19.94 24.18L20.03 24.06L20.12 23.93L20.19 23.8L20.27 23.66L20.33 23.53L20.4 23.38L20.45 23.24L20.51 23.09L20.56 22.94L20.6 22.79L20.63 22.64L20.66 22.48L20.68 22.32L20.7 22.16L20.71 21.99L20.71 21.83L20.71 21.67L20.7 21.5L20.68 21.35L20.66 21.19L20.63 21.03L20.6 20.88L20.56 20.73L20.51 20.58L20.45 20.43L20.4 20.28L20.33 20.14L20.27 20L20.19 19.87L20.12 19.74L20.03 19.61L19.94 19.48L19.85 19.36L19.75 19.25L19.65 19.13L19.55 19.02L19.43 18.91L19.32 18.81L19.2 18.72L19.08 18.62L18.95 18.53L18.83 18.45L18.7 18.37L18.56 18.3L18.42 18.23L18.28 18.17L18.14 18.11L17.99 18.06L17.84 18.01L17.69 17.97L17.53 17.93L17.38 17.91L17.22 17.88L17.06 17.87L16.89 17.86L16.73 17.86L16.57 17.86L16.4 17.87L16.25 17.88Z" id="b34Op5T0q"></path><path d="M2.73 6.71C17.06 6.71 26.01 6.71 29.59 6.71C29.81 6.71 29.88 7.01 29.69 7.11C28.81 7.56 26.6 8.69 23.08 10.5C26.88 8.53 29.26 7.3 30.21 6.81C30.29 6.77 30.29 6.66 30.21 6.62C29.26 6.13 26.88 4.9 23.08 2.93" id="d1e00jVBG"></path><path d="M2.73 6.71C17.06 6.71 26.01 6.71 29.59 6.71C29.81 6.71 29.88 7.01 29.69 7.11C28.81 7.56 26.6 8.69 23.08 10.5C26.88 8.53 29.26 7.3 30.21 6.81C30.29 6.77 30.29 6.66 30.21 6.62C29.26 6.13 26.88 4.9 23.08 2.93" id="a1lndLGU9c"></path><path d="M1.83 5L2.83 5L2.83 8.5L1.83 8.5L1.83 5Z" id="a3qtWSKUGQ"></path><path d="M23.34 1.07L24 1.42L22.39 4.51L21.73 4.17L23.34 1.07Z" id="d23weSA7q7"></path><path d="M21.66 9.27L22.33 8.93L23.93 12.02L23.26 12.37L21.66 9.27Z" id="a2xjqEcNuJ"></path></defs><g><g><g><g><use xlink:href="#b4no3CqSCy" opacity="1" fill-opacity="0" stroke="#333333" stroke-width="3" stroke-opacity="1"></use></g></g><g><use xlink:href="#b34Op5T0q" opacity="1" fill="#333333" fill-opacity="1"></use><g><use xlink:href="#b34Op5T0q" opacity="1" fill-opacity="0" stroke="#aaaaaa" stroke-width="1" stroke-opacity="1"></use></g></g><g><use xlink:href="#d1e00jVBG" opacity="1" fill="#000000" fill-opacity="0"></use><g><use xlink:href="#d1e00jVBG" opacity="1" fill-opacity="0" stroke="#aaaaaa" stroke-width="3.5" stroke-opacity="1"></use></g></g><g><use xlink:href="#a1lndLGU9c" opacity="1" fill="#000000" fill-opacity="0"></use><g><use xlink:href="#a1lndLGU9c" opacity="1" fill-opacity="0" stroke="#333333" stroke-width="2" stroke-opacity="1"></use></g></g><g><use xlink:href="#a3qtWSKUGQ" opacity="1" fill="#aaaaaa" fill-opacity="1"></use></g><g><use xlink:href="#d23weSA7q7" opacity="1" fill="#aaaaaa" fill-opacity="1"></use></g><g><use xlink:href="#a2xjqEcNuJ" opacity="1" fill="#aaaaaa" fill-opacity="1"></use></g></g></g></svg>