<?xml version="1.0" encoding="UTF-8" standalone="no"?>
<!DOCTYPE svg PUBLIC "-//W3C//DTD SVG 1.1//EN" "http://www.w3.org/Graphics/SVG/1.1/DTD/svg11.dtd">
<svg version="1.1" xmlns="http://www.w3.org/2000/svg" xmlns:xlink="http://www.w3.org/1999/xlink" preserveAspectRatio="xMidYMid meet" viewBox="0 0 24 24" width="24" height="24"><defs><path d="M12.99 0.82L12.63 0.87L12.27 0.93L11.91 1.02L11.56 1.11L11.22 1.22L10.88 1.34L10.55 1.47L10.23 1.61L9.91 1.77L9.6 1.94L9.3 2.12L9 2.31L8.71 2.51L8.43 2.73L8.16 2.95L7.9 3.18L7.64 3.43L7.4 3.68L7.17 3.94L6.95 4.21L6.73 4.49L6.53 4.78L6.34 5.08L6.16 5.38L5.99 5.69L5.83 6.01L5.69 6.33L5.56 6.66L5.43 7L5.33 7.34L5.23 7.69L5.15 8.05L5.09 8.41L5.04 8.77L5 9.14L4.98 9.51L4.97 9.89L4.98 10.27L5 10.64L5.04 11.01L5.09 11.37L5.15 11.73L5.23 12.09L5.33 12.44L5.43 12.78L5.56 13.12L5.69 13.45L5.83 13.77L5.99 14.09L6.16 14.4L6.34 14.7L6.52 14.99L0.75 20.76L3.24 23.25L9.01 17.48L9.3 17.66L9.6 17.84L9.91 18.01L10.23 18.17L10.55 18.31L10.88 18.44L11.22 18.57L11.56 18.67L11.91 18.77L12.27 18.85L12.63 18.91L12.99 18.96L13.36 19L13.73 19.02L14.11 19.03L14.49 19.02L14.86 19L15.23 18.96L15.59 18.91L15.95 18.85L16.31 18.77L16.66 18.67L17 18.57L17.34 18.44L17.67 18.31L17.99 18.17L18.31 18.01L18.62 17.84L18.92 17.66L19.22 17.47L19.51 17.27L19.79 17.05L20.06 16.83L20.32 16.6L20.57 16.36L20.82 16.1L21.05 15.84L21.27 15.57L21.49 15.29L21.69 15L21.88 14.7L22.06 14.4L22.23 14.09L22.39 13.77L22.53 13.45L22.66 13.12L22.78 12.78L22.89 12.44L22.98 12.09L23.07 11.73L23.13 11.37L23.18 11.01L23.22 10.64L23.24 10.27L23.25 9.89L23.24 9.51L23.22 9.14L23.18 8.77L23.13 8.41L23.07 8.05L22.98 7.69L22.89 7.34L22.78 7L22.66 6.66L22.53 6.33L22.39 6.01L22.23 5.69L22.06 5.38L21.88 5.08L21.69 4.78L21.49 4.49L21.27 4.21L21.05 3.94L20.82 3.68L20.57 3.43L20.32 3.18L20.06 2.95L19.79 2.73L19.51 2.51L19.22 2.31L18.92 2.12L18.62 1.94L18.31 1.77L17.99 1.61L17.67 1.47L17.34 1.34L17 1.22L16.66 1.11L16.31 1.02L15.95 0.93L15.59 0.87L15.23 0.82L14.86 0.78L14.49 0.76L14.11 0.75L13.73 0.76L13.36 0.78L12.99 0.82ZM14.8 4.29L15.03 4.33L15.25 4.37L15.46 4.41L15.68 4.47L15.89 4.54L16.1 4.61L16.3 4.7L16.5 4.78L16.7 4.88L16.89 4.98L17.08 5.1L17.26 5.21L17.44 5.34L17.61 5.47L17.78 5.61L17.94 5.75L18.1 5.9L18.25 6.06L18.39 6.22L18.53 6.39L18.66 6.56L18.79 6.74L18.9 6.92L19.02 7.11L19.12 7.3L19.22 7.5L19.3 7.7L19.39 7.9L19.46 8.11L19.53 8.32L19.59 8.54L19.63 8.75L19.67 8.97L19.71 9.2L19.73 9.43L19.75 9.66L19.75 9.89L19.75 10.12L19.73 10.35L19.71 10.58L19.67 10.81L19.63 11.03L19.59 11.24L19.53 11.46L19.46 11.67L19.39 11.88L19.3 12.08L19.22 12.29L19.12 12.48L19.02 12.68L18.9 12.86L18.79 13.04L18.66 13.22L18.53 13.39L18.39 13.56L18.25 13.72L18.1 13.88L17.94 14.03L17.78 14.17L17.61 14.31L17.44 14.44L17.26 14.57L17.08 14.68L16.89 14.8L16.7 14.9L16.5 15L16.3 15.09L16.1 15.17L15.89 15.24L15.68 15.31L15.46 15.37L15.25 15.42L15.03 15.46L14.8 15.49L14.57 15.51L14.34 15.53L14.11 15.53L13.88 15.53L13.65 15.51L13.42 15.49L13.19 15.46L12.97 15.42L12.76 15.37L12.54 15.31L12.33 15.24L12.12 15.17L11.92 15.09L11.71 15L11.52 14.9L11.33 14.8L11.14 14.68L10.96 14.57L10.78 14.44L10.61 14.31L10.44 14.17L10.28 14.03L10.12 13.88L9.97 13.72L9.83 13.56L9.69 13.39L9.56 13.22L9.43 13.04L9.32 12.86L9.2 12.68L9.1 12.48L9 12.29L8.91 12.08L8.83 11.88L8.76 11.67L8.69 11.46L8.63 11.24L8.58 11.03L8.54 10.81L8.51 10.58L8.49 10.35L8.47 10.12L8.47 9.89L8.47 9.66L8.49 9.43L8.51 9.2L8.54 8.97L8.58 8.75L8.63 8.54L8.69 8.32L8.76 8.11L8.83 7.9L8.91 7.7L9 7.5L9.1 7.3L9.2 7.11L9.32 6.92L9.43 6.74L9.56 6.56L9.69 6.39L9.83 6.22L9.97 6.06L10.12 5.9L10.28 5.75L10.44 5.61L10.61 5.47L10.78 5.34L10.96 5.21L11.14 5.1L11.33 4.98L11.52 4.88L11.71 4.78L11.92 4.7L12.12 4.61L12.33 4.54L12.54 4.47L12.76 4.41L12.97 4.37L13.19 4.33L13.42 4.29L13.65 4.27L13.88 4.25L14.11 4.25L14.34 4.25L14.57 4.27L14.8 4.29Z" id="h2BYk8w3vy"></path><path d="M17.77 9L17.77 10.95L10.73 10.95L10.73 9L17.77 9Z" id="cZyOCGCxN"></path></defs><g><g><g><use xlink:href="#h2BYk8w3vy" opacity="1" fill="#333333" fill-opacity="1"></use><g><use xlink:href="#h2BYk8w3vy" opacity="1" fill-opacity="0" stroke="#aaaaaa" stroke-width="1" stroke-opacity="1"></use></g></g><g><use xlink:href="#cZyOCGCxN" opacity="1" fill="#333333" fill-opacity="1"></use><g><use xlink:href="#cZyOCGCxN" opacity="1" fill-opacity="0" stroke="#aaaaaa" stroke-width="0.5" stroke-opacity="1"></use></g></g></g></g></svg>