<?xml version="1.0" encoding="UTF-8" standalone="no"?>
<!DOCTYPE svg PUBLIC "-//W3C//DTD SVG 1.1//EN" "http://www.w3.org/Graphics/SVG/1.1/DTD/svg11.dtd">
<svg version="1.1" xmlns="http://www.w3.org/2000/svg" xmlns:xlink="http://www.w3.org/1999/xlink" preserveAspectRatio="xMidYMid meet" viewBox="0 0 24 24" width="24" height="24"><defs><path d="M12.93 1.56L12.59 1.61L12.25 1.67L11.92 1.75L11.59 1.83L11.27 1.94L10.96 2.05L10.65 2.17L10.35 2.31L10.05 2.45L9.76 2.61L9.48 2.78L9.2 2.96L8.93 3.15L8.67 3.35L8.42 3.56L8.17 3.77L7.94 4L7.71 4.23L7.49 4.48L7.28 4.73L7.08 4.99L6.9 5.26L6.72 5.54L6.55 5.82L6.39 6.11L6.24 6.41L6.11 6.71L5.99 7.02L5.87 7.33L5.77 7.65L5.69 7.98L5.61 8.31L5.55 8.65L5.5 8.99L5.47 9.33L5.45 9.68L5.44 10.03L5.45 10.38L5.47 10.73L5.5 11.07L5.55 11.42L5.61 11.75L5.69 12.08L5.77 12.41L5.87 12.73L5.99 13.04L6.11 13.35L6.24 13.65L6.39 13.95L6.55 14.24L6.72 14.52L6.89 14.79L1.5 20.18L3.82 22.5L9.21 17.11L9.48 17.28L9.76 17.45L10.05 17.61L10.35 17.76L10.65 17.89L10.96 18.02L11.27 18.13L11.59 18.23L11.92 18.32L12.25 18.39L12.59 18.45L12.93 18.5L13.27 18.53L13.62 18.56L13.97 18.56L14.32 18.56L14.67 18.53L15.01 18.5L15.35 18.45L15.69 18.39L16.02 18.32L16.35 18.23L16.67 18.13L16.98 18.02L17.29 17.89L17.59 17.76L17.89 17.61L18.18 17.45L18.46 17.28L18.74 17.1L19.01 16.92L19.27 16.72L19.52 16.51L19.77 16.29L20 16.07L20.23 15.83L20.45 15.59L20.66 15.33L20.85 15.07L21.04 14.8L21.22 14.52L21.39 14.24L21.55 13.95L21.69 13.65L21.83 13.35L21.95 13.04L22.07 12.73L22.17 12.41L22.25 12.08L22.33 11.75L22.39 11.42L22.44 11.07L22.47 10.73L22.49 10.38L22.5 10.03L22.49 9.68L22.47 9.33L22.44 8.99L22.39 8.65L22.33 8.31L22.25 7.98L22.17 7.65L22.07 7.33L21.95 7.02L21.83 6.71L21.69 6.41L21.55 6.11L21.39 5.82L21.22 5.54L21.04 5.26L20.85 4.99L20.66 4.73L20.45 4.48L20.23 4.23L20 4L19.77 3.77L19.52 3.56L19.27 3.35L19.01 3.15L18.74 2.96L18.46 2.78L18.18 2.61L17.89 2.45L17.59 2.31L17.29 2.17L16.98 2.05L16.67 1.94L16.35 1.83L16.02 1.75L15.69 1.67L15.35 1.61L15.01 1.56L14.67 1.53L14.32 1.51L13.97 1.5L13.62 1.51L13.27 1.53L12.93 1.56ZM14.61 4.81L14.82 4.84L15.03 4.88L15.23 4.92L15.43 4.97L15.63 5.04L15.83 5.1L16.02 5.18L16.2 5.27L16.39 5.36L16.57 5.45L16.74 5.56L16.91 5.67L17.08 5.78L17.24 5.91L17.4 6.03L17.55 6.17L17.69 6.31L17.83 6.45L17.97 6.6L18.09 6.76L18.22 6.92L18.33 7.09L18.44 7.26L18.55 7.43L18.65 7.61L18.74 7.8L18.82 7.98L18.9 8.17L18.96 8.37L19.03 8.57L19.08 8.77L19.13 8.97L19.16 9.18L19.19 9.39L19.22 9.6L19.23 9.81L19.23 10.03L19.23 10.25L19.22 10.46L19.19 10.68L19.16 10.89L19.13 11.09L19.08 11.3L19.03 11.5L18.96 11.7L18.9 11.89L18.82 12.08L18.74 12.27L18.65 12.45L18.55 12.63L18.44 12.8L18.33 12.98L18.22 13.14L18.09 13.3L17.97 13.46L17.83 13.61L17.69 13.76L17.55 13.89L17.4 14.03L17.24 14.16L17.08 14.28L16.91 14.4L16.74 14.51L16.57 14.61L16.39 14.71L16.2 14.8L16.02 14.88L15.83 14.96L15.63 15.03L15.43 15.09L15.23 15.14L15.03 15.19L14.82 15.23L14.61 15.26L14.4 15.28L14.19 15.29L13.97 15.3L13.75 15.29L13.54 15.28L13.32 15.26L13.11 15.23L12.91 15.19L12.71 15.14L12.5 15.09L12.3 15.03L12.11 14.96L11.92 14.88L11.73 14.8L11.55 14.71L11.37 14.61L11.2 14.51L11.02 14.4L10.86 14.28L10.7 14.16L10.54 14.03L10.39 13.89L10.25 13.76L10.11 13.61L9.97 13.46L9.84 13.3L9.72 13.14L9.6 12.98L9.5 12.8L9.39 12.63L9.29 12.45L9.2 12.27L9.12 12.08L9.04 11.89L8.97 11.7L8.91 11.5L8.86 11.3L8.81 11.09L8.77 10.89L8.75 10.68L8.72 10.46L8.71 10.25L8.7 10.03L8.71 9.81L8.72 9.6L8.75 9.39L8.77 9.18L8.81 8.97L8.86 8.77L8.91 8.57L8.97 8.37L9.04 8.17L9.12 7.98L9.2 7.8L9.29 7.61L9.39 7.43L9.5 7.26L9.6 7.09L9.72 6.92L9.84 6.76L9.97 6.6L10.11 6.45L10.25 6.31L10.39 6.17L10.54 6.03L10.7 5.91L10.86 5.78L11.02 5.67L11.2 5.56L11.37 5.45L11.55 5.36L11.73 5.27L11.92 5.18L12.11 5.1L12.3 5.04L12.5 4.97L12.71 4.92L12.91 4.88L13.11 4.84L13.32 4.81L13.54 4.79L13.75 4.77L13.97 4.77L14.19 4.77L14.4 4.79L14.61 4.81Z" id="bAT9j882K"></path><mask id="maska1zTkuMFNZ" x="0.9" y="0.9" width="22.2" height="22.2" maskUnits="userSpaceOnUse"><rect x="0.9" y="0.9" width="22.2" height="22.2" fill="white"></rect><use xlink:href="#bAT9j882K" opacity="1" fill="black"></use></mask><path d="M15.02 6.31L15.02 6.31L15.03 6.32L15.03 6.32L15.04 6.32L15.04 6.32L15.05 6.32L15.05 6.32L15.05 6.33L15.06 6.33L15.06 6.33L15.06 6.33L15.07 6.34L15.07 6.34L15.08 6.34L15.08 6.34L15.08 6.35L15.09 6.35L15.09 6.35L15.1 6.35L15.1 6.36L15.1 6.36L15.1 6.37L15.11 6.37L15.11 6.38L15.11 6.38L15.11 6.38L15.12 6.39L15.12 6.39L15.12 6.4L15.12 6.4L15.12 6.41L15.12 6.41L15.13 6.42L15.13 6.42L15.13 6.42L15.13 6.43L15.13 6.44L15.13 8.94L17.62 8.94L17.63 8.94L17.64 8.94L17.64 8.94L17.65 8.94L17.65 8.94L17.66 8.94L17.66 8.94L17.67 8.94L17.67 8.95L17.68 8.95L17.68 8.95L17.68 8.95L17.68 8.95L17.69 8.96L17.69 8.96L17.7 8.96L17.7 8.97L17.71 8.97L17.71 8.97L17.71 8.98L17.72 8.98L17.72 8.98L17.72 8.98L17.73 8.99L17.73 8.99L17.73 9L17.74 9L17.74 9L17.74 9.01L17.74 9.01L17.74 9.02L17.75 9.02L17.75 9.03L17.75 9.03L17.75 9.04L17.75 9.04L17.75 9.05L17.75 9.05L17.75 9.06L17.75 9.06L17.75 11.06L17.75 11.07L17.75 11.08L17.75 11.08L17.75 11.08L17.75 11.09L17.75 11.09L17.75 11.1L17.75 11.1L17.74 11.11L17.74 11.11L17.74 11.12L17.74 11.12L17.74 11.12L17.73 11.13L17.73 11.13L17.73 11.14L17.72 11.14L17.72 11.15L17.72 11.15L17.71 11.15L17.71 11.15L17.71 11.16L17.7 11.16L17.7 11.16L17.69 11.16L17.69 11.17L17.68 11.17L17.68 11.17L17.68 11.17L17.68 11.18L17.67 11.18L17.67 11.18L17.66 11.18L17.66 11.18L17.65 11.18L17.65 11.19L17.64 11.19L17.64 11.19L17.63 11.19L17.62 11.19L15.13 11.19L15.13 13.69L15.13 13.69L15.13 13.7L15.13 13.7L15.13 13.71L15.12 13.71L15.12 13.72L15.12 13.72L15.12 13.73L15.12 13.73L15.12 13.74L15.11 13.74L15.11 13.75L15.11 13.75L15.11 13.75L15.1 13.76L15.1 13.76L15.1 13.77L15.1 13.77L15.09 13.77L15.09 13.78L15.08 13.78L15.08 13.78L15.08 13.78L15.07 13.79L15.07 13.79L15.06 13.79L15.06 13.8L15.06 13.8L15.05 13.8L15.05 13.8L15.05 13.8L15.04 13.81L15.04 13.81L15.03 13.81L15.03 13.81L15.02 13.81L15.02 13.81L15.01 13.81L15 13.81L15 13.81L13 13.81L13 13.81L12.99 13.81L12.98 13.81L12.98 13.81L12.97 13.81L12.97 13.81L12.96 13.81L12.96 13.81L12.95 13.8L12.95 13.8L12.95 13.8L12.94 13.8L12.94 13.8L12.94 13.79L12.93 13.79L12.93 13.79L12.92 13.78L12.92 13.78L12.92 13.78L12.91 13.78L12.91 13.77L12.9 13.77L12.9 13.77L12.9 13.76L12.9 13.76L12.89 13.75L12.89 13.75L12.89 13.75L12.89 13.74L12.88 13.74L12.88 13.73L12.88 13.73L12.88 13.72L12.88 13.72L12.88 13.71L12.88 13.71L12.88 13.7L12.88 13.7L12.88 13.69L12.88 13.69L12.88 11.19L10.38 11.19L10.37 11.19L10.36 11.19L10.36 11.19L10.35 11.19L10.35 11.18L10.34 11.18L10.34 11.18L10.33 11.18L10.33 11.18L10.33 11.18L10.32 11.17L10.32 11.17L10.32 11.17L10.31 11.17L10.31 11.16L10.3 11.16L10.3 11.16L10.29 11.16L10.29 11.15L10.29 11.15L10.28 11.15L10.28 11.15L10.28 11.14L10.27 11.14L10.27 11.13L10.27 11.13L10.26 11.12L10.26 11.12L10.26 11.12L10.26 11.11L10.26 11.11L10.25 11.1L10.25 11.1L10.25 11.09L10.25 11.09L10.25 11.08L10.25 11.08L10.25 11.08L10.25 11.07L10.25 11.06L10.25 9.06L10.25 9.06L10.25 9.05L10.25 9.05L10.25 9.04L10.25 9.04L10.25 9.03L10.25 9.03L10.25 9.02L10.26 9.02L10.26 9.01L10.26 9.01L10.26 9L10.26 9L10.27 9L10.27 8.99L10.27 8.99L10.28 8.98L10.28 8.98L10.28 8.98L10.29 8.98L10.29 8.97L10.29 8.97L10.3 8.97L10.3 8.96L10.31 8.96L10.31 8.96L10.32 8.95L10.32 8.95L10.32 8.95L10.33 8.95L10.33 8.95L10.33 8.94L10.34 8.94L10.34 8.94L10.35 8.94L10.35 8.94L10.36 8.94L10.36 8.94L10.37 8.94L10.38 8.94L12.88 8.94L12.88 6.44L12.88 6.43L12.88 6.42L12.88 6.42L12.88 6.42L12.88 6.41L12.88 6.41L12.88 6.4L12.88 6.4L12.88 6.39L12.88 6.39L12.89 6.38L12.89 6.38L12.89 6.38L12.89 6.37L12.9 6.37L12.9 6.36L12.9 6.36L12.9 6.35L12.91 6.35L12.91 6.35L12.92 6.35L12.92 6.34L12.92 6.34L12.93 6.34L12.93 6.34L12.94 6.33L12.94 6.33L12.94 6.33L12.95 6.33L12.95 6.32L12.95 6.32L12.96 6.32L12.96 6.32L12.97 6.32L12.97 6.32L12.98 6.31L12.98 6.31L12.99 6.31L13 6.31L13 6.31L15 6.31L15 6.31L15.01 6.31L15.02 6.31Z" id="a1vGv78iEI"></path></defs><g><g><g><use xlink:href="#bAT9j882K" opacity="1" fill="#333333" fill-opacity="1"></use><g mask="url(#maska1zTkuMFNZ)"><use xlink:href="#bAT9j882K" opacity="1" fill-opacity="0" stroke="#cccccc" stroke-width="0.6" stroke-opacity="1"></use></g></g><g><use xlink:href="#a1vGv78iEI" opacity="1" fill="#333333" fill-opacity="1"></use><g><use xlink:href="#a1vGv78iEI" opacity="1" fill-opacity="0" stroke="#cccccc" stroke-width="0.3" stroke-opacity="1"></use></g></g></g></g></svg>